<svg xmlns="http://www.w3.org/2000/svg" version="1.1" xmlns:xlink="http://www.w3.org/1999/xlink"
  xmlns:svgjs="http://svgjs.com/svgjs" width="1000" height="1000">
  <style>
    @media (prefers-color-scheme: light) {
    :root {
    filter: invert(100%);
    }
    }
  </style>
  <rect width="1000" height="1000" rx="200" ry="200" fill="#f6f4f4" />
  <g
    transform="matrix(9.892044532154456,0,0,9.892044532154456,100.00002204721221,100.00620639093944)">
    <svg xmlns="http://www.w3.org/2000/svg" version="1.1" xmlns:xlink="http://www.w3.org/1999/xlink"
      xmlns:svgjs="http://svgjs.com/svgjs" width="80.873069" height="80.873003">
      <svg version="1.1" xmlns="http://www.w3.org/2000/svg" xmlns:svg="http://www.w3.org/2000/svg"
        viewBox="0 0 80.873069 80.873003">
        <style>
          path {
          fill: #090b0b
          }
        </style>
        <path id="hair"
          d="m 18.911714,31.077801 c 0.864205,-2.52616 0.182002,-7.97015 3.684062,-10.71447 1.534534,-2.77567 0.585522,-6.65827 3.472874,-8.7278 2.65403,-2.7908696 6.219233,-1.19371 8.930758,0.48879 1.763819,1.06201 4.324807,1.469235 5.437118,1.480145 l 7e-6,-13.604384566935 C 35.000817,-0.01463857 29.933234,1.9686514 24.978069,3.9999114 c -3.624282,1.34591 -5.941952,4.72426 -5.967331,8.5718596 -0.988144,6.14723 -1.598224,12.44896 -0.929896,18.65593 z m 43.049642,0 c -0.864212,-2.52616 -0.182001,-7.97015 -3.684066,-10.71447 -1.534532,-2.77567 -0.58552,-6.65827 -3.472874,-8.7278 -2.654034,-2.7908696 -6.219229,-1.19371 -8.930758,0.48879 -1.763819,1.06201 -4.324835,1.471123 -5.437147,1.482033 L 40.436533,8.1433065e-5 C 45.872249,-0.01463857 50.93983,1.9686514 55.894997,3.9999114 c 3.624285,1.34591 5.941959,4.72426 5.967329,8.5718596 0.988151,6.14723 1.598232,12.44896 0.929901,18.65593 z" />
        <path id="glasses"
          d="m 26.417036,30.513798 c -3.357878,0.0308 -6.590031,1.00842 -9.865208,1.59111 -0.188181,0.0701 -0.453946,0.0695 -0.478127,0.21968 l -0.239851,1.48932 c -0.129043,0.80127 1.381418,1.34458 1.723679,1.94695 0.619259,2.62497 0.846682,6.16692 2.769756,7.70304 4.051787,3.2365 13.465231,1.62772 15.962495,-1.42498 1.395684,-1.70611 2.457019,-4.1618 2.94051,-6.59819 0.352944,-0.29667 0.867535,-0.44459 1.206243,-0.46988 l -0.0011,-2.43278 -1.984189,-0.0447 c -2.150081,-0.69582 -4.270649,-1.51614 -6.549824,-1.68888 -1.815954,-0.24825 -3.652484,-0.34271 -5.484433,-0.29066 z m 1.583365,1.156 c 2.72458,0.0113 8.611662,0.60925 9.100088,1.7771 1.096548,2.62191 0.195232,6.20313 -2.082111,8.21768 -2.950327,2.60987 -10.452366,3.37661 -13.651564,0.61914 -1.570657,-1.35378 -2.198564,-3.44859 -2.539288,-6.21897 -0.426975,-1.99725 0.339318,-3.00526 3.141741,-3.66514 1.975032,-0.46506 3.998686,-0.73825 6.031134,-0.72981 z m 26.455634,-1.156 c 3.357878,0.0308 6.590027,1.00842 9.865206,1.59111 0.18818,0.0701 0.45394,0.0695 0.47812,0.21968 l 0.23986,1.48932 c 0.12904,0.80127 -1.381419,1.34458 -1.723679,1.94695 -0.61926,2.62497 -0.84669,6.16692 -2.769759,7.70304 -4.051789,3.2365 -13.465233,1.62772 -15.962497,-1.42498 -1.395684,-1.70611 -2.457018,-4.1618 -2.94051,-6.59819 -0.352944,-0.29667 -0.867535,-0.44459 -1.206243,-0.46988 l 0.0011,-2.43278 1.984189,-0.0447 c 2.150081,-0.69582 4.270649,-1.51614 6.549824,-1.68888 1.81595,-0.24825 3.652479,-0.34271 5.484429,-0.29066 z m -1.58337,1.156 c -2.724579,0.0113 -8.611662,0.60925 -9.100088,1.7771 -1.096548,2.62191 -0.195232,6.20313 2.082111,8.21768 2.950328,2.60987 10.452366,3.37661 13.651565,0.61914 1.570659,-1.35378 2.198559,-3.44859 2.539289,-6.21897 0.42697,-1.99725 -0.33932,-3.00526 -3.141739,-3.66514 -1.975039,-0.46506 -3.998689,-0.73825 -6.031138,-0.72981 z" />
        <path id="beard"
          d="m 17.297256,35.8 c -2.840955,15.26999 0.477147,31.16936 10.361202,41.40067 3.079135,3.18731 8.804346,3.46891 12.778258,3.67101 l -5.32e-4,-15.6108 c -0.399821,0.12369 -0.801808,0.33669 -1.189369,0.62583 -0.469066,0.34995 -0.916998,0.81142 -1.314379,1.36107 -0.492937,0.68182 -5.565866,0.46624 -7.523595,-1.3809 -1.674197,-1.89144 0.01746,-4.40192 1.746494,-5.52765 2.134736,-1.5437 4.649128,-3.92897 8.280759,-2.72186 l 5.96e-4,-4.73416 c -0.622665,0.049 -1.247048,-0.56509 -3.380015,-0.21054 C 31.3052,53.6287 29.597517,57.74941 26.786416,58.40451 22.793632,57.40657 20.04935,53.76008 18.566716,50.11552 17.064073,46.32005 16.733461,42.11188 17.48404,38.11136 L 17.297262,35.8 Z m 46.278558,0 c 2.840957,15.26999 -0.47715,31.16936 -10.3612,41.40067 -3.079137,3.18731 -8.80435,3.46891 -12.778262,3.67101 l 5.32e-4,-15.6108 c 0.39982,0.12369 0.801808,0.33669 1.189369,0.62583 0.469065,0.34995 0.916998,0.81142 1.314378,1.36107 0.492938,0.68182 5.565867,0.46624 7.523595,-1.3809 1.674199,-1.89144 -0.0175,-4.40192 -1.746488,-5.52765 -2.134741,-1.5437 -4.649134,-3.92897 -8.280764,-2.72186 l -5.96e-4,-4.73416 c 0.622664,0.049 1.247048,-0.56509 3.380015,-0.21054 5.751474,0.95603 7.459163,5.07674 10.27026,5.73184 3.992786,-0.99794 6.737064,-4.64443 8.219702,-8.28899 1.502639,-3.79547 1.833248,-8.00364 1.082669,-12.00416 L 63.575804,35.8 Z" />
      </svg>
    </svg>
  </g>
</svg>